<?xml version="1.0" encoding="UTF-8"?>
<svg width="61px" height="54px" viewBox="0 0 61 54" version="1.1" xmlns="http://www.w3.org/2000/svg" xmlns:xlink="http://www.w3.org/1999/xlink">
    <!-- Generator: Sketch 52.2 (67145) - http://www.bohemiancoding.com/sketch -->
    <title>design</title>
    <desc>Created with Sketch.</desc>
    <g id="design" stroke="none" stroke-width="1" fill="none" fill-rule="evenodd">
        <g transform="translate(0.000000, -3.000000)">
            <g id="Group" transform="translate(10.000000, 0.000000)" fill="#434E6F" fill-rule="nonzero">
                <path d="M0.8,55 L0.8,52 L3.8,52 L3.8,54.9 L0.8,54.9 L0.8,55 Z M0.8,49 L0.8,46.1 L3.8,46.1 L3.8,49 L0.8,49 Z M0.8,43.3 L0.8,40.4 L3.8,40.4 L3.8,43.3 C3.8,43.3 0.8,43.3 0.8,43.3 Z M0.8,37.4 L0.8,34.5 L3.8,34.5 L3.8,37.4 L0.8,37.4 Z M0.8,31.5 L0.8,28.6 L3.8,28.6 L3.8,31.5 L0.8,31.5 Z M0.8,25.5 L0.8,22.6 L3.8,22.6 L3.8,25.5 L0.8,25.5 Z M0.8,19.6 L0.8,16.7 L3.8,16.7 L3.8,19.6 L0.8,19.6 Z M0.8,13.9 L0.8,11 L3.8,11 L3.8,13.9 L0.8,13.9 Z M0.8,8 L0.8,5 L3.8,5 L3.8,7.9 L0.8,7.9 L0.8,8 Z" id="Shape"></path>
            </g>
            <g id="Group" transform="translate(46.000000, 0.000000)" fill="#434E6F" fill-rule="nonzero">
                <path d="M0.2,55 L0.2,52 L3.2,52 L3.2,54.9 L0.2,54.9 L0.2,55 Z M0.2,49 L0.2,46.1 L3.2,46.1 L3.2,49 L0.2,49 Z M0.2,43.3 L0.2,40.4 L3.2,40.4 L3.2,43.3 C3.2,43.3 0.2,43.3 0.2,43.3 Z M0.2,37.4 L0.2,34.5 L3.2,34.5 L3.2,37.4 L0.2,37.4 Z M0.2,31.5 L0.2,28.6 L3.2,28.6 L3.2,31.5 L0.2,31.5 Z M0.2,25.5 L0.2,22.6 L3.2,22.6 L3.2,25.5 L0.2,25.5 Z M0.2,19.6 L0.2,16.7 L3.2,16.7 L3.2,19.6 L0.2,19.6 Z M0.2,13.9 L0.2,11 L3.2,11 L3.2,13.9 L0.2,13.9 Z M0.2,8 L0.2,5 L3.2,5 L3.2,7.9 L0.2,7.9 L0.2,8 Z" id="Shape"></path>
            </g>
            <g id="Group" transform="translate(28.000000, 0.000000)" fill="#434E6F" fill-rule="nonzero">
                <path d="M0.5,55 L0.5,52 L3.5,52 L3.5,54.9 L0.5,54.9 L0.5,55 Z M0.5,49 L0.5,46.1 L3.5,46.1 L3.5,49 L0.5,49 Z M0.5,43.3 L0.5,40.4 L3.5,40.4 L3.5,43.3 C3.5,43.3 0.5,43.3 0.5,43.3 Z M0.5,37.4 L0.5,34.5 L3.5,34.5 L3.5,37.4 L0.5,37.4 Z M0.5,31.5 L0.5,28.6 L3.5,28.6 L3.5,31.5 L0.5,31.5 Z M0.5,25.5 L0.5,22.6 L3.5,22.6 L3.5,25.5 L0.5,25.5 Z M0.5,19.6 L0.5,16.7 L3.5,16.7 L3.5,19.6 L0.5,19.6 Z M0.5,13.9 L0.5,11 L3.5,11 L3.5,13.9 L0.5,13.9 Z M0.5,8 L0.5,5 L3.5,5 L3.5,7.9 L0.5,7.9 L0.5,8 Z" id="Shape"></path>
            </g>
            <g id="Group" transform="translate(0.000000, 46.000000)" fill="#434E6F">
                <rect id="Rectangle" x="0.5" y="0.1" width="1.5" height="3"></rect>
                <path d="M55,3 L52.1,3 L52.1,0 L55,0 L55,3 Z M49.2,3 L46.3,3 L46.3,0 L49.2,0 L49.2,3 Z M43.2,3 L40.3,3 L40.3,0 L43.2,0 L43.2,3 Z M37.3,3 L34.4,3 L34.4,0 L37.3,0 L37.3,3 Z M31.5,3 L28.6,3 L28.6,0 L31.5,0 L31.5,3 Z M25.7,3 L22.8,3 L22.8,0 L25.7,0 L25.7,3 Z M19.7,3 L16.8,3 L16.8,0 L19.7,0 L19.7,3 Z M13.8,3 L10.9,3 L10.9,0 L13.8,0 L13.8,3 Z M8,3 L5.1,3 L5.1,0 L8,0 L8,3 Z" id="Shape" fill-rule="nonzero"></path>
                <rect id="Rectangle" x="58" y="0.1" width="1.5" height="3"></rect>
            </g>
            <g id="Group" transform="translate(0.000000, 10.000000)" fill="#434E6F">
                <rect id="Rectangle" x="0.5" y="0.9" width="1.5" height="3"></rect>
                <path d="M55,3.9 L52.1,3.9 L52.1,0.9 L55,0.9 L55,3.9 Z M49.2,3.9 L46.3,3.9 L46.3,0.9 L49.2,0.9 L49.2,3.9 Z M43.2,3.9 L40.3,3.9 L40.3,0.9 L43.2,0.9 L43.2,3.9 Z M37.3,3.9 L34.4,3.9 L34.4,0.9 L37.3,0.9 L37.3,3.9 Z M31.5,3.9 L28.6,3.9 L28.6,0.9 L31.5,0.9 L31.5,3.9 Z M25.7,3.9 L22.8,3.9 L22.8,0.9 L25.7,0.9 L25.7,3.9 Z M19.7,3.9 L16.8,3.9 L16.8,0.9 L19.7,0.9 L19.7,3.9 Z M13.8,3.9 L10.9,3.9 L10.9,0.9 L13.8,0.9 L13.8,3.9 Z M8,3.9 L5.1,3.9 L5.1,0.9 L8,0.9 L8,3.9 Z" id="Shape" fill-rule="nonzero"></path>
                <rect id="Rectangle" x="58" y="0.9" width="1.5" height="3"></rect>
            </g>
            <g id="Group" transform="translate(0.000000, 28.000000)" fill="#434E6F">
                <rect id="Rectangle" x="0.5" y="0.5" width="1.5" height="3"></rect>
                <path d="M55,3.5 L52.1,3.5 L52.1,0.5 L55,0.5 L55,3.5 Z M49.2,3.5 L46.3,3.5 L46.3,0.5 L49.2,0.5 L49.2,3.5 Z M43.2,3.5 L40.3,3.5 L40.3,0.5 L43.2,0.5 L43.2,3.5 Z M37.3,3.5 L34.4,3.5 L34.4,0.5 L37.3,0.5 L37.3,3.5 Z M31.5,3.5 L28.6,3.5 L28.6,0.5 L31.5,0.5 L31.5,3.5 Z M25.7,3.5 L22.8,3.5 L22.8,0.5 L25.7,0.5 L25.7,3.5 Z M19.7,3.5 L16.8,3.5 L16.8,0.5 L19.7,0.5 L19.7,3.5 Z M13.8,3.5 L10.9,3.5 L10.9,0.5 L13.8,0.5 L13.8,3.5 Z M8,3.5 L5.1,3.5 L5.1,0.5 L8,0.5 L8,3.5 Z" id="Shape" fill-rule="nonzero"></path>
                <rect id="Rectangle" x="58" y="0.5" width="1.5" height="3"></rect>
            </g>
            <rect id="Rectangle" fill="#FFFFFF" x="21.7" y="15.8" width="15.7" height="28.2"></rect>
            <path d="M26.7,36 L25.1,40.2 L21,40.2 L28.8,19.7 L31.8,19.7 L39.4,40.2 L35.2,40.2 L33.7,36 L26.7,36 Z M30,25.5 L27.7,32.8 L32.4,32.8 L30,25.5 Z" id="Shape" fill="#434E6F" fill-rule="nonzero"></path>
        </g>
    </g>
</svg>