<?xml version="1.0" encoding="UTF-8"?>
<svg width="50px" height="51px" viewBox="0 0 50 51" version="1.1" xmlns="http://www.w3.org/2000/svg" xmlns:xlink="http://www.w3.org/1999/xlink">
    <!-- Generator: Sketch 52.2 (67145) - http://www.bohemiancoding.com/sketch -->
    <title>Untitled</title>
    <desc>Created with Sketch.</desc>
    <g id="Page-1" stroke="none" stroke-width="1" fill="none" fill-rule="evenodd">
        <g id="social">
            <polyline id="Path" stroke="#434E6F" stroke-width="3" points="42.7 42.7 7.3 25.1 42.7 7.3"></polyline>
            <g id="Group" transform="translate(0.000000, 16.000000)">
                <path d="M16.1,9 C16.1,13 12.8,16.3 8.8,16.3 C4.8,16.3 1.5,13 1.5,9 C1.5,5 4.8,1.7 8.8,1.7 C12.8,1.7 16.1,5 16.1,9 Z" id="Path" fill="#FFFFFF"></path>
                <path d="M8.8,17.8 C3.9,17.8 0,13.9 0,9 C0,4.1 3.9,0.2 8.8,0.2 C13.7,0.2 17.6,4.1 17.6,9 C17.6,13.9 13.7,17.8 8.8,17.8 Z M8.8,3.2 C5.6,3.2 3,5.8 3,9 C3,12.2 5.6,14.8 8.8,14.8 C12,14.8 14.6,12.2 14.6,9 C14.6,5.8 12,3.2 8.8,3.2 Z" id="Shape" fill="#434E6F" fill-rule="nonzero"></path>
            </g>
            <g id="Group" transform="translate(32.000000, 0.000000)">
                <path d="M9.2,1.5 C13.2,1.5 16.5,4.8 16.5,8.8 C16.5,12.8 13.2,16.1 9.2,16.1 C5.2,16.1 1.9,12.8 1.9,8.8 C1.9,4.8 5.2,1.5 9.2,1.5" id="Path" fill="#FFFFFF"></path>
                <path d="M9.2,17.6 C4.3,17.6 0.4,13.7 0.4,8.8 C0.4,3.9 4.3,0 9.2,0 C14.1,0 18,3.9 18,8.8 C18,13.7 14.1,17.6 9.2,17.6 Z M9.2,3 C6,3 3.4,5.6 3.4,8.8 C3.4,12 6,14.6 9.2,14.6 C12.4,14.6 15,12 15,8.8 C15,5.6 12.4,3 9.2,3 Z" id="Shape" fill="#434E6F" fill-rule="nonzero"></path>
            </g>
            <g id="Group" transform="translate(32.000000, 32.000000)">
                <path d="M9.2,1.9 C13.2,1.9 16.5,5.2 16.5,9.2 C16.5,13.2 13.2,16.5 9.2,16.5 C5.2,16.5 1.9,13.2 1.9,9.2 C1.9,5.2 5.2,1.9 9.2,1.9" id="Path" fill="#FFFFFF"></path>
                <path d="M9.2,18 C4.3,18 0.4,14.1 0.4,9.2 C0.4,4.3 4.3,0.4 9.2,0.4 C14.1,0.4 18,4.3 18,9.2 C18,14.1 14.1,18 9.2,18 Z M9.2,3.4 C6,3.4 3.4,6 3.4,9.2 C3.4,12.4 6,15 9.2,15 C12.4,15 15,12.4 15,9.2 C15,6 12.4,3.4 9.2,3.4 Z" id="Shape" fill="#434E6F" fill-rule="nonzero"></path>
            </g>
        </g>
    </g>
</svg>